<svg width="214" height="38" viewBox="0 0 214 38" fill="none" xmlns="http://www.w3.org/2000/svg">
<path d="M0 11C0 6.58172 3.58172 3 8 3H24C28.4183 3 32 6.58172 32 11V27C32 31.4183 28.4183 35 24 35H8C3.58172 35 0 31.4183 0 27V11Z" fill="#2C2C2C"/>
<path d="M17.2955 13.3636V25H15.8864V14.8409H15.8182L12.9773 16.7273V15.2955L15.8864 13.3636H17.2955Z" fill="#F5F5F5"/>
<path d="M53.2045 25V23.9773L57.0455 19.7727C57.4962 19.2803 57.8674 18.8523 58.1591 18.4886C58.4508 18.1212 58.6667 17.7765 58.8068 17.4545C58.9508 17.1288 59.0227 16.7879 59.0227 16.4318C59.0227 16.0227 58.9242 15.6686 58.7273 15.3693C58.5341 15.0701 58.2689 14.839 57.9318 14.6761C57.5947 14.5133 57.2159 14.4318 56.7955 14.4318C56.3485 14.4318 55.9583 14.5246 55.625 14.7102C55.2955 14.892 55.0398 15.1477 54.858 15.4773C54.6799 15.8068 54.5909 16.1932 54.5909 16.6364H53.25C53.25 15.9545 53.4072 15.3561 53.7216 14.8409C54.036 14.3258 54.464 13.9242 55.0057 13.6364C55.5511 13.3485 56.1629 13.2045 56.8409 13.2045C57.5227 13.2045 58.1269 13.3485 58.6534 13.6364C59.1799 13.9242 59.5928 14.3125 59.892 14.8011C60.1913 15.2898 60.3409 15.8333 60.3409 16.4318C60.3409 16.8598 60.2633 17.2784 60.108 17.6875C59.9564 18.0928 59.6913 18.5455 59.3125 19.0455C58.9375 19.5417 58.4167 20.1477 57.75 20.8636L55.1364 23.6591V23.75H60.5455V25H53.2045Z" fill="#1E1E1E"/>
<path d="M99.1364 25.1591C98.3864 25.1591 97.7178 25.0303 97.1307 24.7727C96.5473 24.5152 96.0833 24.1572 95.7386 23.6989C95.3977 23.2367 95.2121 22.7008 95.1818 22.0909H96.6136C96.6439 22.4659 96.7727 22.7898 97 23.0625C97.2273 23.3314 97.5246 23.5398 97.892 23.6875C98.2595 23.8352 98.6667 23.9091 99.1136 23.9091C99.6136 23.9091 100.057 23.822 100.443 23.6477C100.83 23.4735 101.133 23.2311 101.352 22.9205C101.572 22.6098 101.682 22.25 101.682 21.8409C101.682 21.4129 101.576 21.036 101.364 20.7102C101.152 20.3807 100.841 20.1231 100.432 19.9375C100.023 19.7519 99.5227 19.6591 98.9318 19.6591H98V18.4091H98.9318C99.3939 18.4091 99.7992 18.3258 100.148 18.1591C100.5 17.9924 100.775 17.7576 100.972 17.4545C101.172 17.1515 101.273 16.7955 101.273 16.3864C101.273 15.9924 101.186 15.6496 101.011 15.358C100.837 15.0663 100.591 14.839 100.273 14.6761C99.9583 14.5133 99.5871 14.4318 99.1591 14.4318C98.7576 14.4318 98.3788 14.5057 98.0227 14.6534C97.6705 14.7973 97.3826 15.0076 97.1591 15.2841C96.9356 15.5568 96.8144 15.8864 96.7955 16.2727H95.4318C95.4545 15.6629 95.6383 15.1288 95.983 14.6705C96.3277 14.2083 96.7784 13.8485 97.3352 13.5909C97.8958 13.3333 98.5114 13.2045 99.1818 13.2045C99.9015 13.2045 100.519 13.3504 101.034 13.642C101.549 13.9299 101.945 14.3106 102.222 14.7841C102.498 15.2576 102.636 15.7689 102.636 16.3182C102.636 16.9735 102.464 17.5322 102.119 17.9943C101.778 18.4564 101.314 18.7765 100.727 18.9545V19.0455C101.462 19.1667 102.036 19.4792 102.449 19.983C102.862 20.483 103.068 21.1023 103.068 21.8409C103.068 22.4735 102.896 23.0417 102.551 23.5455C102.21 24.0455 101.744 24.4394 101.153 24.7273C100.563 25.0152 99.8902 25.1591 99.1364 25.1591Z" fill="#1E1E1E"/>
<path d="M143.381 25.1477C143.006 25.1477 142.684 25.0152 142.415 24.75C142.15 24.4811 142.017 24.1591 142.017 23.7841C142.017 23.4129 142.15 23.0947 142.415 22.8295C142.684 22.5644 143.006 22.4318 143.381 22.4318C143.744 22.4318 144.063 22.5644 144.335 22.8295C144.608 23.0947 144.744 23.4129 144.744 23.7841C144.744 24.0341 144.68 24.2633 144.551 24.4716C144.426 24.6761 144.261 24.8409 144.057 24.9659C143.852 25.0871 143.627 25.1477 143.381 25.1477ZM148.146 25.1477C147.771 25.1477 147.449 25.0152 147.18 24.75C146.915 24.4811 146.783 24.1591 146.783 23.7841C146.783 23.4129 146.915 23.0947 147.18 22.8295C147.449 22.5644 147.771 22.4318 148.146 22.4318C148.51 22.4318 148.828 22.5644 149.101 22.8295C149.374 23.0947 149.51 23.4129 149.51 23.7841C149.51 24.0341 149.446 24.2633 149.317 24.4716C149.192 24.6761 149.027 24.8409 148.822 24.9659C148.618 25.0871 148.393 25.1477 148.146 25.1477ZM152.912 25.1477C152.537 25.1477 152.215 25.0152 151.946 24.75C151.681 24.4811 151.548 24.1591 151.548 23.7841C151.548 23.4129 151.681 23.0947 151.946 22.8295C152.215 22.5644 152.537 22.4318 152.912 22.4318C153.276 22.4318 153.594 22.5644 153.866 22.8295C154.139 23.0947 154.276 23.4129 154.276 23.7841C154.276 24.0341 154.211 24.2633 154.082 24.4716C153.957 24.6761 153.793 24.8409 153.588 24.9659C153.384 25.0871 153.158 25.1477 152.912 25.1477Z" fill="black"/>
<path d="M193.568 25L198.773 14.7045V14.6136H192.773V13.3636H200.227V14.6818L195.045 25H193.568Z" fill="#1E1E1E"/>
</svg>
